<?xml version="1.0" encoding="UTF-8" standalone="no" ?>
<!DOCTYPE svg PUBLIC "-//W3C//DTD SVG 1.1//EN" "http://www.w3.org/Graphics/SVG/1.1/DTD/svg11.dtd">
<svg xmlns="http://www.w3.org/2000/svg" xmlns:xlink="http://www.w3.org/1999/xlink" version="1.1" width="2000" height="105" viewBox="0 0 2000 105" xml:space="preserve">
<desc>Created with Fabric.js 4.6.0</desc>
<defs>
</defs>
<g transform="matrix(3.21 0 0 3.21 1001.43 48.62)" id="T_GnmcxEkSYLCD8CEcfX0"  >
<path style="stroke: none; stroke-width: 1; stroke-dasharray: none; stroke-linecap: butt; stroke-dashoffset: 0; stroke-linejoin: miter; stroke-miterlimit: 4; fill: rgb(158,50,50); fill-rule: nonzero; opacity: 1;" vector-effect="non-scaling-stroke"  transform=" translate(-300, -300)" d="M 593.619 287.011 L 593.26 287.75100000000003 C 588.573 288.00800000000004 592.164 287.312 587.581 287.367 C 587.3340000000001 286.75300000000004 591.559 286.63 595.2710000000001 286.56600000000003 C 591.9190000000001 286.49800000000005 588.595 286.05600000000004 587.2330000000001 286.725 C 584.0840000000001 286.46700000000004 587.581 285.97900000000004 583.7950000000001 285.72400000000005 C 581.0960000000001 285.903 577.5490000000001 286.48900000000003 574.4540000000001 286.13500000000005 L 574.509 286.02600000000007 C 566.9780000000001 285.40700000000004 562.988 286.94700000000006 556.097 286.3280000000001 L 556.84 286.1280000000001 C 554.408 285.7770000000001 549.62 286.2430000000001 545.2330000000001 285.8700000000001 C 546.488 285.9960000000001 547.5680000000001 286.4370000000001 544.931 286.50600000000014 C 539.885 286.12800000000016 536.44 286.50600000000014 532.7560000000001 286.03500000000014 L 529.21 286.62400000000014 C 511.64700000000005 286.5120000000001 442.249 287.3510000000001 424.596 287.44300000000015 L 425.284 287.35000000000014 C 398.399 287.64600000000013 343.197 287.60200000000015 315.405 288.4180000000001 C 311.102 287.8370000000001 305.174 287.9690000000001 300.693 287.8050000000001 C 303.18399999999997 288.05400000000014 302.334 288.4620000000001 300.383 288.44100000000014 C 286.717 288.3700000000001 299.462 288.84000000000015 285.64 289.09300000000013 C 269.729 289.6300000000001 208.837 289.0220000000001 194.714 288.5170000000001 C 187.12199999999999 289.3780000000001 177.65 288.7260000000001 170.22 289.2770000000001 L 171.082 288.7090000000001 C 163.093 289.0380000000001 117.797 288.59500000000014 108.51899999999999 288.9070000000001 L 109.764 289.0270000000001 C 101.679 289.5650000000001 102.77499999999999 288.6190000000001 96.39999999999999 288.3340000000001 C 97.24099999999999 289.2910000000001 90.30999999999999 289.84500000000014 87.66199999999999 289.91000000000014 L 87.764 289.7020000000001 C 83.776 289.8660000000001 74.74499999999999 290.6990000000001 68.16199999999999 290.8340000000001 L 68.41699999999999 290.3050000000001 C 62.929999999999986 290.86900000000014 52.59399999999999 290.6340000000001 48.64999999999999 290.6920000000001 C 39.626999999999995 290.47000000000014 25.70099999999999 289.55700000000013 13.638999999999989 290.25100000000015 L 5.838999999999989 288.75500000000017 L 4.701999999999989 288.89800000000014 C 4.701999999999989 288.89800000000014 -7.859000000000011 307.03900000000016 8.080999999999989 310.90800000000013 L 7.825999999999989 311.43100000000015 L 10.59299999999999 311.3700000000002 C 11.31599999999999 311.5330000000002 12.18299999999999 311.72400000000016 12.724999999999989 311.83200000000016 C 12.272999999999989 311.94500000000016 11.404999999999989 312.07100000000014 10.766999999999989 312.19800000000015 C 12.353999999999989 312.25300000000016 13.893999999999988 312.3170000000002 15.154999999999989 312.47700000000015 C 15.905999999999988 312.27800000000013 14.606999999999989 312.2640000000001 14.014999999999988 312.14700000000016 C 16.059999999999988 311.9590000000002 18.907999999999987 311.46300000000014 21.389999999999986 311.7060000000002 C 25.286999999999985 311.7610000000002 21.639999999999986 312.56500000000017 26.183999999999987 312.61800000000017 C 50.121999999999986 313.0260000000002 73.323 313.63600000000014 97.52099999999999 313.5160000000002 C 98.07199999999999 313.7330000000002 97.41099999999999 313.7230000000002 96.71799999999999 313.82700000000017 C 104.03099999999999 313.68600000000015 110.45199999999998 313.5690000000002 117.12299999999999 313.4420000000002 C 118.96799999999999 313.67800000000017 119.469 314.00500000000017 120.02 314.2210000000002 C 119.469 314.0040000000002 128.632 313.88700000000017 138.013 313.8340000000002 C 142.702 313.8260000000002 147.439 313.81800000000015 151.043 313.8090000000002 C 154.65 313.8090000000002 157.127 313.8340000000002 157.276 313.8560000000002 L 157.73600000000002 312.91500000000025 C 164.91100000000003 312.8970000000003 159.82700000000003 313.99700000000024 166.46 313.76100000000025 C 169.061 312.41900000000027 177.48600000000002 313.9040000000002 179.78 313.19100000000026 C 179.725 313.2910000000003 182.976 313.3390000000003 182.776 313.7550000000003 C 183.76600000000002 313.0260000000003 186.11200000000002 313.58500000000026 188.162 313.40000000000026 C 188.90200000000002 313.19900000000024 187.62 313.1850000000003 187.06 312.9590000000003 L 191.76 312.70500000000027 C 193.594 312.9370000000003 194.04299999999998 313.37100000000027 192.053 313.44300000000027 C 204.321 313.71100000000024 263.22 314.40800000000024 276.43899999999996 314.0410000000003 C 274.74299999999994 313.49400000000026 270.667 313.8630000000003 269.10999999999996 313.0000000000003 C 272.60999999999996 312.5120000000003 274.25699999999995 313.1700000000003 275.79799999999994 312.6540000000003 C 277.13499999999993 313.9490000000003 283.47499999999997 312.96700000000027 286.12299999999993 314.27700000000027 L 287.1289999999999 313.5410000000003 L 288.86099999999993 313.9900000000003 C 304.2319999999999 313.2300000000003 292.37499999999994 313.6190000000003 305.99299999999994 313.78900000000027 C 313.7729999999999 313.68200000000024 317.52799999999996 312.6950000000003 321.83899999999994 313.02700000000027 C 321.11099999999993 312.9570000000003 319.7869999999999 312.5650000000003 321.66799999999995 312.3960000000003 C 322.01399999999995 313.03900000000027 327.10599999999994 311.9370000000003 328.09599999999995 312.5890000000003 C 330.1019999999999 312.50100000000026 336.578 312.5890000000003 334.3879999999999 311.7060000000003 C 335.48799999999994 312.1470000000003 341.2709999999999 312.3210000000003 337.8259999999999 312.7040000000003 C 339.77699999999993 312.7350000000003 341.6739999999999 312.8560000000003 343.0719999999999 312.6650000000003 L 340.5669999999999 312.4230000000003 C 347.1579999999999 312.29400000000027 350.7489999999999 312.97200000000026 355.0379999999999 312.1770000000003 L 352.6009999999999 311.8290000000003 C 356.5389999999999 311.7760000000003 359.8339999999999 311.7120000000003 361.3819999999999 312.5790000000003 L 357.3339999999999 312.8410000000003 C 363.8739999999999 312.81800000000027 367.8069999999999 312.7670000000003 373.2559999999999 312.3000000000003 L 371.31299999999993 312.2790000000003 C 378.24699999999996 311.41000000000025 414.5349999999999 310.7010000000003 420.9289999999999 309.6170000000003 L 417.98599999999993 308.9430000000003 L 423.48099999999994 308.3710000000003 C 422.83199999999994 308.36300000000034 420.8279999999999 310.56000000000034 420.28799999999995 310.3360000000003 C 432.05799999999994 310.2730000000003 493.328 309.7560000000003 504.198 310.2110000000003 C 508.589 310.5860000000003 504.98999999999995 311.2790000000003 504.943 311.3810000000003 C 510.282 311.1310000000003 507.248 310.6700000000003 511.784 310.73100000000034 C 513.028 310.84600000000034 511.529 311.2580000000003 510.83299999999997 311.35000000000036 C 512.823 311.27400000000034 514.6709999999999 311.50600000000037 514.818 311.1880000000004 C 512.335 310.94600000000037 513.384 310.11200000000036 512.335 309.56900000000036 L 518.176 309.64100000000036 L 517.913 310.16600000000034 C 519.215 310.18200000000036 521.221 308.7270000000003 526.955 309.01200000000034 C 536.635 309.23500000000035 547.1510000000001 309.05100000000033 556.8870000000001 309.17600000000033 C 556.734 309.4920000000003 554.6890000000001 309.67800000000034 552.642 309.86500000000035 C 553.95 309.88100000000037 555.936 309.80100000000033 557.1370000000001 310.02300000000037 C 554.783 309.47000000000037 561.221 309.65400000000034 559.3870000000001 309.4190000000004 C 566.5160000000001 308.1280000000004 575.739 309.30400000000037 582.0340000000001 308.4310000000004 C 582.5790000000001 307.27100000000036 595.5050000000001 288.5190000000004 595.5050000000001 287.14300000000037 C 597.4650000000001 287.16500000000036 599.4080000000001 287.19900000000035 600.0000000000001 287.30200000000036 C 599.498 286.978 595.658 286.824 593.619 287.011 z M 16.254 311.531 L 16.172 311.53000000000003 C 16.2 311.52500000000003 16.229 311.519 16.254 311.514 C 16.251 311.521 16.258 311.523 16.254 311.531 z" stroke-linecap="round" />
</g>
</svg>